<svg width="24" height="24" viewBox="0 0 24 24" fill="none" xmlns="http://www.w3.org/2000/svg">
<path fill-rule="evenodd" clip-rule="evenodd" d="M6.75 3C6.55109 3 6.36032 3.07902 6.21967 3.21967C6.07902 3.36032 6 3.55109 6 3.75V20.349L12 16.3485L18 20.349V12.75C18 12.5511 18.079 12.3603 18.2197 12.2197C18.3603 12.079 18.5511 12 18.75 12C18.9489 12 19.1397 12.079 19.2803 12.2197C19.421 12.3603 19.5 12.5511 19.5 12.75V23.151L12 18.1515L4.5 23.151V3.75C4.5 3.15326 4.73705 2.58097 5.15901 2.15901C5.58097 1.73705 6.15326 1.5 6.75 1.5H12.75C12.9489 1.5 13.1397 1.57902 13.2803 1.71967C13.421 1.86032 13.5 2.05109 13.5 2.25C13.5 2.44891 13.421 2.63968 13.2803 2.78033C13.1397 2.92098 12.9489 3 12.75 3H6.75ZM20.25 1.5C20.4489 1.5 20.6397 1.57902 20.7803 1.71967C20.921 1.86032 21 2.05109 21 2.25V5.25C21 5.44891 20.921 5.63968 20.7803 5.78033C20.6397 5.92098 20.4489 6 20.25 6H17.25C17.0511 6 16.8603 5.92098 16.7197 5.78033C16.579 5.63968 16.5 5.44891 16.5 5.25C16.5 5.05109 16.579 4.86032 16.7197 4.71967C16.8603 4.57902 17.0511 4.5 17.25 4.5H19.5V2.25C19.5 2.05109 19.579 1.86032 19.7197 1.71967C19.8603 1.57902 20.0511 1.5 20.25 1.5Z" fill="black"/>
<path fill-rule="evenodd" clip-rule="evenodd" d="M19.5 5.25C19.5 5.05109 19.579 4.86032 19.7197 4.71967C19.8603 4.57902 20.0511 4.5 20.25 4.5H23.25C23.4489 4.5 23.6397 4.57902 23.7803 4.71967C23.921 4.86032 24 5.05109 24 5.25C24 5.44891 23.921 5.63968 23.7803 5.78033C23.6397 5.92098 23.4489 6 23.25 6H21V8.25C21 8.44891 20.921 8.63968 20.7803 8.78033C20.6397 8.92098 20.4489 9 20.25 9C20.0511 9 19.8603 8.92098 19.7197 8.78033C19.579 8.63968 19.5 8.44891 19.5 8.25V5.25Z" fill="black"/>
</svg>
