<svg width="108" height="91" viewBox="0 0 108 91" fill="none" xmlns="http://www.w3.org/2000/svg">
<path d="M86.5 31L2.5 81H64.5L86.5 31Z" fill="#FF7171" fill-opacity="0.2" stroke="white"/>
<path d="M107.663 46.7899L10 51.0346L64.6029 80.4033L107.663 46.7899Z" fill="#FF7171" fill-opacity="0.2"/>
<path d="M71.4438 52.4019C69.8647 55.0576 67.7354 56.2061 63.7158 56.6846C62.5913 56.8281 61.3711 56.8999 60.0312 56.8999C56.4663 56.8999 52.1597 56.4453 47.0635 56.0386C50.0063 55.2251 51.4897 54.0288 54.3848 53.6699C64.0269 53.2153 70.75 45.9658 70.75 35.3667C70.75 24.1455 63.8115 17.6138 53.4517 17.6138C43.2593 17.6138 36.1055 24.9829 36.1055 35.9409C36.1055 46.3247 42.0151 52.689 51.1309 53.5742C49.2407 54.2441 47.7095 55.1772 45.3408 55.7993C44.1206 55.3687 42.7329 55.1055 41.6323 55.1055C39.8379 55.1055 38.9766 55.6079 38.9766 56.4214C38.9766 57.3306 39.9336 57.7134 41.2495 57.7134C42.5176 57.7134 44.0728 57.2827 45.3408 56.6846C45.604 56.7085 46.1064 56.876 46.5132 57.0195C52.4229 59.2686 57.208 62.2114 62.5913 62.2114C65.3188 62.2114 67.5439 61.4219 68.9077 60.2974C70.6543 58.8857 71.7788 56.2539 72.3052 52.665L71.4438 52.4019ZM44.2402 35.7495C44.2402 25.605 47.7573 18.499 53.2363 18.499C58.4282 18.499 62.6152 25.1265 62.6152 35.5581C62.6152 45.7026 59.0742 52.8086 53.5952 52.8086C48.4272 52.8086 44.2402 46.1812 44.2402 35.7495Z" fill="black"/>
</svg>
