<svg width="18" height="18" viewBox="0 0 18 18" fill="none" xmlns="http://www.w3.org/2000/svg">
<path d="M17.78 16.7459L14.6863 13.7212L14.6138 13.611C14.479 13.4767 14.2947 13.4011 14.1023 13.4011C13.9098 13.4011 13.7255 13.4767 13.5907 13.611C10.9615 16.023 6.91033 16.1541 4.1238 13.9173C1.33728 11.6806 0.680102 7.77003 2.58812 4.77915C4.49613 1.78827 8.37726 0.645162 11.6576 2.10792C14.9379 3.57068 16.5994 7.18541 15.5403 10.5548C15.464 10.7982 15.5264 11.063 15.7039 11.2492C15.8813 11.4355 16.147 11.5151 16.4007 11.458C16.6545 11.4009 16.8578 11.2157 16.9341 10.9723C18.2002 6.97378 16.288 2.6708 12.4345 0.846952C8.58104 -0.976895 3.94275 0.225742 1.52015 3.67688C-0.902457 7.12801 -0.382339 11.7919 2.74404 14.6516C5.87041 17.5112 10.6648 17.7083 14.0257 15.1154L16.7649 17.7935C17.0478 18.0688 17.5051 18.0688 17.788 17.7935C18.0707 17.5142 18.0707 17.0645 17.788 16.7853L17.78 16.7459Z" fill="black"/>
</svg>
