<svg width="20" height="21" viewBox="0 0 20 21" fill="none" xmlns="http://www.w3.org/2000/svg">
<path d="M15.4978 19.9194C15.3748 19.9224 15.2528 19.8914 15.1458 19.8294L10.0077 17.1234L5.48375 19.5594C4.74575 19.9594 3.82175 19.6854 3.42175 18.9464C3.41675 18.9374 3.41175 18.9284 3.40675 18.9184C3.24975 18.6094 3.19475 18.2604 3.24875 17.9184L4.12875 12.7244L0.45075 9.00038C-0.15025 8.38038 -0.15025 7.39438 0.45075 6.77338C0.68475 6.52738 0.99475 6.36838 1.33075 6.32238L6.37375 5.55638L8.61675 0.883378C8.96575 0.123378 9.86475 -0.210622 10.6257 0.138378C10.9557 0.289378 11.2198 0.554378 11.3708 0.883378L13.6237 5.57238L18.6838 6.34738C19.0928 6.40838 19.4598 6.63438 19.6998 6.97138C20.1478 7.61538 20.0798 8.48538 19.5378 9.05238L15.8767 12.7324L16.3867 15.5314C16.4577 15.9514 16.1807 16.3524 15.7618 16.4314C15.3498 16.5054 14.9558 16.2314 14.8818 15.8184L14.3628 13.0194C14.2758 12.5064 14.4387 11.9824 14.8027 11.6114L18.4727 7.90538L13.4128 7.12038C12.8997 7.03738 12.4648 6.69738 12.2598 6.22038L10.0077 1.55138L7.72775 6.29438C7.52275 6.77238 7.08775 7.11138 6.57475 7.19438L1.53175 7.96038L5.17475 11.6604C5.53775 12.0254 5.70075 12.5424 5.61475 13.0494L4.73475 18.2434L9.25775 15.8174C9.70575 15.5654 10.2528 15.5654 10.7008 15.8174L15.8317 18.5234C16.1448 18.6944 16.3037 19.0554 16.2188 19.4024C16.1408 19.7494 15.8347 19.9964 15.4797 20.0024L15.4978 19.9194Z" fill="#200E32"/>
</svg>
