<svg width="24" height="24" viewBox="0 0 24 24" fill="none" xmlns="http://www.w3.org/2000/svg">
<path d="M2 10H5C5.26522 10 5.51957 10.1054 5.70711 10.2929C5.89464 10.4804 6 10.7348 6 11V20C6 20.2652 5.89464 20.5196 5.70711 20.7071C5.51957 20.8946 5.26522 21 5 21H2C1.73478 21 1.48043 20.8946 1.29289 20.7071C1.10536 20.5196 1 20.2652 1 20V11C1 10.7348 1.10536 10.4804 1.29289 10.2929C1.48043 10.1054 1.73478 10 2 10ZM2 11V20H5V11H2ZM17.716 19.025L20.717 14.025C20.897 13.725 21 13.375 21 13V12C21 11.4696 20.7893 10.9609 20.4142 10.5858C20.0391 10.2107 19.5304 10 19 10H13.39L14.847 4.56L14.852 4.542C14.8975 4.3725 14.8977 4.194 14.8524 4.02444C14.8071 3.85487 14.718 3.70021 14.594 3.576L8.585 9.585C8.39907 9.77068 8.25166 9.99127 8.15127 10.2341C8.05087 10.4769 7.99947 10.7372 8 11V18C8 18.5304 8.21071 19.0391 8.58579 19.4142C8.96086 19.7893 9.46957 20 10 20H16C16.73 20 17.368 19.61 17.716 19.025ZM22 13C22 13.594 21.828 14.147 21.53 14.612L18.624 19.455C18.3643 19.9233 17.984 20.3135 17.5226 20.5852C17.0612 20.8568 16.5355 21.0001 16 21H10C9.20435 21 8.44129 20.6839 7.87868 20.1213C7.31607 19.5587 7 18.7956 7 18V11C7 10.172 7.335 9.423 7.877 8.88L14.594 2.162L15.301 2.869C15.554 3.122 15.7345 3.43823 15.8237 3.78473C15.9128 4.13123 15.9074 4.4953 15.808 4.839L14.693 9H19C19.7956 9 20.5587 9.31607 21.1213 9.87868C21.6839 10.4413 22 11.2043 22 12V13Z" fill="black"/>
</svg>
